<svg width="30" height="27" viewBox="0 0 30 27" fill="none" xmlns="http://www.w3.org/2000/svg">
<path d="M30 13.1646C30 6.05024 23.2852 0.284302 15 0.284302C6.71484 0.284302 0 6.05024 0 13.1646C0 20.2789 6.71484 26.0449 15 26.0449C15.0879 26.0449 15.1758 26.0449 15.2637 26.0398V16.0174H12.041V12.7923H15.2637V10.4175C15.2637 7.66531 17.2207 6.16596 20.0801 6.16596C21.4512 6.16596 22.6289 6.2515 22.9688 6.29175V9.16969H21C19.4473 9.16969 19.1426 9.80364 19.1426 10.7344V12.7872H22.8633L22.377 16.0123H19.1426V25.5468C25.4121 24.0021 30 19.0462 30 13.1646V13.1646Z" fill="#C5AC2D"/>
</svg>
