<svg width="30" height="27" viewBox="0 0 30 27" fill="none" xmlns="http://www.w3.org/2000/svg">
<path d="M17.8711 13.1634C17.8711 14.5231 16.5857 15.6254 15 15.6254C13.4143 15.6254 12.1289 14.5231 12.1289 13.1634C12.1289 11.8036 13.4143 10.7013 15 10.7013C16.5857 10.7013 17.8711 11.8036 17.8711 13.1634Z" fill="#C5AC2D"/>
<path d="M21.7144 8.79668C21.5764 8.47546 21.3562 8.18471 21.0701 7.94606C20.7922 7.70033 20.454 7.51121 20.0797 7.39267C19.7762 7.29143 19.3203 7.17093 18.4805 7.1381C17.5721 7.10252 17.2997 7.09485 14.9999 7.09485C12.6999 7.09485 12.4275 7.10232 11.5193 7.1379C10.6796 7.17093 10.2234 7.29143 9.92013 7.39267C9.54591 7.51121 9.2074 7.70033 8.92976 7.94606C8.64366 8.18471 8.42348 8.47526 8.28523 8.79668C8.16736 9.05735 8.02705 9.44914 7.98883 10.1704C7.9474 10.9505 7.93848 11.1844 7.93848 13.1599C7.93848 15.1352 7.9474 15.3691 7.98883 16.1493C8.02705 16.8706 8.16736 17.2622 8.28523 17.5229C8.42348 17.8443 8.64343 18.1348 8.92953 18.3735C9.2074 18.6192 9.54568 18.8083 9.9199 18.9269C10.2234 19.0283 10.6796 19.1488 11.5193 19.1816C12.4275 19.2172 12.6997 19.2247 14.9997 19.2247C17.3 19.2247 17.5723 19.2172 18.4803 19.1816C19.3201 19.1488 19.7762 19.0283 20.0797 18.9269C20.8309 18.678 21.4246 18.1681 21.7144 17.5229C21.8323 17.2622 21.9726 16.8706 22.011 16.1493C22.0525 15.3691 22.0612 15.1352 22.0612 13.1599C22.0612 11.1844 22.0525 10.9505 22.011 10.1704C21.9728 9.44914 21.8325 9.05735 21.7144 8.79668V8.79668ZM14.9999 16.9585C12.5571 16.9585 10.5768 15.2578 10.5768 13.1597C10.5768 11.0615 12.5571 9.36088 14.9999 9.36088C17.4426 9.36088 19.4228 11.0615 19.4228 13.1597C19.4228 15.2578 17.4426 16.9585 14.9999 16.9585ZM19.5977 10.0985C19.0269 10.0985 18.5641 9.70097 18.5641 9.21069C18.5641 8.72041 19.0269 8.32291 19.5977 8.32291C20.1685 8.32291 20.6313 8.72041 20.6313 9.21069C20.6311 9.70097 20.1685 10.0985 19.5977 10.0985Z" fill="#C5AC2D"/>
<path d="M15 0.284302C6.717 0.284302 0 6.05209 0 13.1646C0 20.2771 6.717 26.0449 15 26.0449C23.283 26.0449 30 20.2771 30 13.1646C30 6.05209 23.283 0.284302 15 0.284302ZM23.5613 16.2139C23.5197 17.0012 23.3739 17.5387 23.161 18.0092C22.7135 19.0027 21.7989 19.7881 20.6419 20.1723C20.0942 20.3551 19.468 20.4801 18.5513 20.5161C17.6328 20.552 17.3394 20.5607 15.0002 20.5607C12.6608 20.5607 12.3676 20.552 11.4489 20.5161C10.5322 20.4801 9.90601 20.3551 9.35829 20.1723C8.78334 19.9866 8.26286 19.6955 7.83257 19.3192C7.39449 18.9499 7.05551 18.5027 6.83922 18.0092C6.62636 17.5389 6.48056 17.0012 6.4389 16.2141C6.39656 15.4252 6.38672 15.1732 6.38672 13.1646C6.38672 11.156 6.39656 10.904 6.43867 10.1153C6.48033 9.32798 6.6259 8.79045 6.83876 8.31994C7.05505 7.82643 7.39426 7.37931 7.83257 7.01001C8.26263 6.63364 8.78334 6.34257 9.35806 6.15684C9.90601 5.97406 10.532 5.84907 11.4489 5.8131C12.3674 5.77713 12.6608 5.76849 15 5.76849C17.3392 5.76849 17.6326 5.77713 18.5511 5.8133C19.468 5.84907 20.094 5.97406 20.6419 6.15665C21.2167 6.34238 21.7374 6.63364 22.1677 7.01001C22.6057 7.3795 22.9449 7.82643 23.161 8.31994C23.3741 8.79045 23.5197 9.32798 23.5616 10.1153C23.6034 10.904 23.6133 11.156 23.6133 13.1646C23.6133 15.1732 23.6034 15.4252 23.5613 16.2139Z" fill="#C5AC2D"/>
</svg>
