<svg width="25" height="24" viewBox="0 0 25 24" fill="none" xmlns="http://www.w3.org/2000/svg">
<path d="M12.5 0C5.60708 0 0 5.33345 0 11.8889C0 18.4443 5.60708 23.7777 12.5 23.7777C19.3929 23.7777 25 18.4443 25 11.8889C25 5.33345 19.3929 0 12.5 0ZM12.5 22.787C6.18184 22.787 1.04165 17.8981 1.04165 11.8889C1.04165 5.8796 6.18184 0.990722 12.5 0.990722C18.8182 0.990722 23.9583 5.8796 23.9583 11.8889C23.9583 17.8981 18.8182 22.787 12.5 22.787Z" fill="#FEFEFE"/>
<path d="M17.4693 11.4721L10.1776 7.01377C10.0179 6.91461 9.81143 6.90927 9.64663 6.99537C9.47876 7.08245 9.375 7.2489 9.375 7.4303V16.347C9.375 16.5284 9.47876 16.6949 9.64663 16.7819C9.72393 16.8221 9.8104 16.8424 9.89585 16.8424C9.99351 16.8424 10.0922 16.8163 10.1776 16.7635L17.4693 12.3052C17.6178 12.2143 17.7084 12.057 17.7084 11.8887C17.7084 11.7203 17.6178 11.5631 17.4693 11.4721ZM10.4167 15.4395V8.33785L16.2242 11.8887L10.4167 15.4395Z" fill="#FEFEFE"/>
</svg>
