<svg width="30" height="27" viewBox="0 0 30 27" fill="none" xmlns="http://www.w3.org/2000/svg">
<path d="M13.1316 15.5762L18.0109 13.1644L13.1316 10.7526V15.5762Z" fill="#C5AC2D"/>
<path d="M15 0.284302C6.717 0.284302 0 6.05209 0 13.1646C0 20.2771 6.717 26.0449 15 26.0449C23.283 26.0449 30 20.2771 30 13.1646C30 6.05209 23.283 0.284302 15 0.284302ZM24.3727 13.1778C24.3727 13.1778 24.3727 15.7899 23.9868 17.0495C23.7705 17.739 23.1374 18.2826 22.3345 18.4682C20.8676 18.7997 15 18.7997 15 18.7997C15 18.7997 9.14772 18.7997 7.66548 18.455C6.86256 18.2695 6.22948 17.7256 6.01318 17.0362C5.62706 15.7899 5.62706 13.1646 5.62706 13.1646C5.62706 13.1646 5.62706 10.5526 6.01318 9.29299C6.22925 8.60354 6.8779 8.04655 7.66548 7.86102C9.13239 7.52946 15 7.52946 15 7.52946C15 7.52946 20.8676 7.52946 22.3345 7.87419C23.1374 8.05972 23.7705 8.60354 23.9868 9.29299C24.3883 10.5526 24.3727 13.1778 24.3727 13.1778V13.1778Z" fill="#C5AC2D"/>
</svg>
